<?xml version="1.0" encoding="utf-8"?>
<!-- Generator: Adobe Illustrator 16.0.0, SVG Export Plug-In . SVG Version: 6.00 Build 0)  -->
<!DOCTYPE svg PUBLIC "-//W3C//DTD SVG 1.1//EN" "http://www.w3.org/Graphics/SVG/1.1/DTD/svg11.dtd">
<svg version="1.1" id="Layer_1" xmlns="http://www.w3.org/2000/svg" xmlns:xlink="http://www.w3.org/1999/xlink" x="0px" y="0px"
	 width="1920px" height="349px" viewBox="0 0 1920 349" enable-background="new 0 0 1920 349" xml:space="preserve">
<path fill="#FFFFFF" d="M471.479,97.791c-27.352-27.351-59.245-40.645-97.502-40.645c-38.303,0-70.128,13.287-97.294,40.62
	c-27.241,27.413-40.483,59.314-40.483,97.525c0,37.727,13.613,70.468,40.46,97.317c26.849,26.847,59.591,40.459,97.317,40.459
	c38.211,0,70.113-13.243,97.527-40.483c27.333-27.162,40.619-58.986,40.619-97.293C512.123,157.032,498.828,125.139,471.479,97.791z
	 M444.785,265.815c-19.664,19.458-43.487,29.322-70.808,29.322c-27.525,0-51.361-9.879-70.846-29.362
	c-19.485-19.485-29.365-43.322-29.365-70.85c0-27.321,9.866-51.146,29.325-70.808c19.428-19.631,43.277-29.585,70.887-29.585
	c27.406,0,51.242,9.939,70.849,29.544c19.606,19.607,29.547,43.443,29.547,70.849C474.373,222.535,464.418,246.388,444.785,265.815z
	"/>
<path fill="#FFFFFF" d="M597.968,59.339h-69.227v271.905h61.741c38.386,0,73.799-14.185,99.719-39.938
	c22.989-22.91,36.199-57.833,36.232-95.807c0.034-38.091-13.182-73.171-36.257-96.245C666.007,75.083,633.497,61.065,597.968,59.339
	z M662.243,267.055c-18.029,18.025-42.05,27.168-71.396,27.168h-25.086V95.813h24.537c29.658,0,53.817,9.215,71.804,27.393
	c18.109,18.109,27.312,42.315,27.312,71.904C689.414,224.819,680.272,249.025,662.243,267.055z"/>
<g>
	<polygon fill="#FFFFFF" points="733.497,58.606 691.653,58.606 772.225,207.3 772.225,331.244 809.062,331.244 809.062,207.293 
		889.424,58.606 847.417,58.606 790.644,164.043 	"/>
</g>
<g>
	<polygon points="1006.689,331.244 1043.707,331.244 1150.797,58.606 1113.778,58.606 	"/>
	<polygon points="1207.835,58.606 1170.84,58.606 1063.855,331.244 1218.59,331.244 1218.59,294.223 1115.353,294.223 	"/>
	<path d="M1321.275,185.212c-4.209-1.244-7.447-2.139-10.107-2.872c-11.718-3.233-14.396-4.149-29.355-13.807
		c-11.649-7.435-17.831-18.988-17.831-33.38c0-22.498,18.305-40.805,40.802-40.805c18.225,0,34.104,12.738,39.042,29.611h38.276
		c-2.188-16.874-9.572-31.435-22.406-44.266c-15.538-15.542-33.621-23.097-55.274-23.097c-21.778,0-39.919,7.555-55.459,23.096
		c-15.542,15.542-23.1,33.623-23.1,55.277c0,13.933,3.251,25.137,9.936,34.254c12.209,16.663,30.467,30.098,50.092,36.86
		l5.619,1.938c12.511,4.312,12.511,4.312,24.872,8.903l6.491,2.407c8.237,2.995,22.169,11.512,22.169,34.633
		c0,16.767-10.162,31.204-24.653,37.475c0,0-7.089,3.697-15.967,3.697c-18.599,0-34.479-12.627-39.296-29.796h-38.394
		c2.179,16.983,9.566,31.604,22.412,44.447c15.542,15.544,33.684,23.098,55.459,23.098c21.652,0,39.736-7.554,55.278-23.098
		c15.541-15.541,23.097-33.681,23.097-55.458c0-14.035-3.405-25.538-10.12-34.196
		C1360.12,203.764,1341.318,191.029,1321.275,185.212z"/>
	<path d="M1620.155,97.791c-27.352-27.351-59.243-40.645-97.498-40.645c-38.308,0-70.132,13.287-97.297,40.62
		c-27.241,27.412-40.485,59.313-40.485,97.525c0,37.728,13.613,70.47,40.461,97.315c26.848,26.849,59.592,40.461,97.321,40.461
		c38.209,0,70.11-13.243,97.522-40.483c27.334-27.162,40.621-58.986,40.621-97.293
		C1660.801,157.03,1647.507,125.139,1620.155,97.791z M1593.461,265.815c-19.661,19.455-43.483,29.322-70.804,29.322
		c-27.529,0-51.364-9.879-70.851-29.362c-19.481-19.485-29.361-43.322-29.361-70.85c0-27.321,9.865-51.146,29.321-70.808
		c19.428-19.631,43.277-29.585,70.891-29.585c27.407,0,51.241,9.939,70.844,29.545c19.607,19.606,29.55,43.442,29.55,70.848
		C1623.051,222.535,1613.093,246.388,1593.461,265.815z"/>
	<polygon points="1675.525,331.244 1712.546,331.244 1712.546,150.787 1889.301,331.244 1889.301,58.606 1852.28,58.606 
		1852.28,238.882 1675.525,58.606 	"/>
</g>
<path fill="#FFFFFF" d="M239.993,292.609c-4.903-4.903-9.355-10.01-13.373-15.301c-16.849,12.191-36.265,18.376-57.943,18.376
	c-27.528,0-51.365-9.879-70.848-29.363c-19.485-19.483-29.364-43.32-29.364-70.846c0-27.32,9.866-51.144,29.323-70.808
	c19.43-19.633,43.281-29.588,70.889-29.588c21.43,0,40.752,6.181,57.665,18.369c4.085-5.388,8.638-10.613,13.675-15.683
	c4.031-4.055,8.178-7.763,12.42-11.205c-9.369-7.073-19.651-13.074-30.749-17.895c-16.711-7.26-34.169-10.789-53.376-10.789h-14.125
	l0.022-0.086c-32.029,2.957-59.293,16.113-83.007,39.975c-27.244,27.412-40.486,59.313-40.486,97.525
	c0,37.728,13.613,70.47,40.461,97.315c26.847,26.849,59.59,40.461,97.319,40.461c19.208,0,36.667-3.527,53.375-10.785
	c11.262-4.893,21.646-10.988,31.05-18.182C248.478,300.577,244.156,296.772,239.993,292.609z"/>
<g>
	<polygon points="1053.849,58.606 986.612,231.311 932.307,92.346 878.018,231.267 850.365,160.648 827.396,203.145 877.69,331.244 
		931.655,184.585 986.819,331.508 1093.787,58.606 	"/>
	<polygon points="810.408,58.606 770.646,58.606 796.24,123.793 819.221,81.112 	"/>
</g>
<path fill="#5A803F" d="M377.918,81.448c0,0,19.208-11.682,19.946-17.097c1.135-8.309-3.507-13.345-2.353-19.945
	c2.85-16.295,13.753-19.949,13.753-19.949s-5.444-4.389-10.07-3.606c-4.625,0.781-7.367,4.702-7.367,4.702s-3.214-3.569-3.645-6.038
	c-0.43-2.468,1.449-8.111,1.449-8.111s-5.408,2.273-7.839,4.271c-2.431,2-3.875,5.934-3.875,5.934s-3.455-0.645-5.884-2.563
	c-2.429-1.92-2.664-5.984-2.664-5.984s-15.892,13.616-17.097,28.495C351.067,56.435,377.918,81.448,377.918,81.448z"/>
</svg>
